<svg xmlns="http://www.w3.org/2000/svg" width="27" height="29" viewBox="0 0 27 29"><g><g><path fill="#79b260" d="M26.328 2.22c-.303.658-.668 1.53-1.097 2.614a341.104 341.104 0 0 0-1.365 3.502c-.479 1.25-.952 2.52-1.418 3.807-.469 1.287-.892 2.45-1.27 3.483-.38 1.036-.808 2.21-1.288 3.523a7.543 7.543 0 0 1-.682 1.23c-.252.366-.631.55-1.138.55H4.97c-.505 0-.904-.19-1.193-.569a3.651 3.651 0 0 1-.625-1.211L.085 7.674c-.129-.504-.083-.935.132-1.287.214-.355.774-.53 1.684-.53h19.314L23.489.933c.225-.48.543-.77.946-.873a1.66 1.66 0 0 1 1.134.096c.355.165.626.43.816.795.189.367.17.79-.057 1.268zM9.288 26.268c0 .758-.268 1.4-.799 1.93-.53.53-1.17.797-1.928.797-.784 0-1.44-.266-1.97-.796a2.627 2.627 0 0 1-.795-1.93c0-.757.265-1.407.795-1.952.53-.542 1.186-.814 1.97-.814.758 0 1.398.272 1.928.814a2.7 2.7 0 0 1 .799 1.951zm9.504 0c0 .758-.264 1.4-.794 1.93-.531.53-1.175.797-1.932.797-.784 0-1.441-.266-1.97-.796a2.627 2.627 0 0 1-.796-1.93c0-.757.266-1.407.796-1.952.529-.542 1.186-.814 1.97-.814.757 0 1.401.272 1.932.814.53.545.794 1.195.794 1.951z"/></g></g></svg>