<svg xmlns="http://www.w3.org/2000/svg" width="114" height="73" viewBox="0 0 114 73"><defs><linearGradient id="p6r8a" x1="0" x2="114" y1="27.04" y2="33.81" gradientUnits="userSpaceOnUse"><stop offset="0" stop-color="#424242"/><stop offset="1" stop-color="#909090"/></linearGradient></defs><g><g><path fill="#f0f0f0" d="M12.51 50.633h99.553v20.67H12.51c-5.802 0-10.505-4.627-10.505-10.335 0-5.708 4.703-10.335 10.505-10.335z"/></g><g><path fill="#d8d8d8" d="M113.783 68.199v.925H5.264V68.2z"/></g><g><path fill="#d8d8d8" d="M112.858 66.348v.925H4.338v-.925z"/></g><g><path fill="#d8d8d8" d="M112.395 64.496v.926H4.338v-.926z"/></g><g><path fill="#d8d8d8" d="M112.395 57.092v.926H4.338v-.926z"/></g><g><path fill="#d8d8d8" d="M111.932 62.645v.926H3.412v-.926z"/></g><g><path fill="#d8d8d8" d="M111.932 60.794v.926H3.412v-.926z"/></g><g><path fill="#d8d8d8" d="M111.808 58.943v.926H3.413v-.926z"/></g><g><path fill="#d8d8d8" d="M112.858 55.241v.926H4.338v-.926z"/></g><g><path fill="#d8d8d8" d="M113.783 53.39v.926H5.264v-.926z"/></g><g><path fill="#494949" d="M11.8 48.936h101.925v2.66l-101.462-.022c-5.111 0-9.255 4.375-9.255 9.487a9.255 9.255 0 0 0 9.255 9.255l101.462-.128V73H11.801C5.283 73 0 67.254 0 60.736c0-6.517 5.283-11.8 11.8-11.8z"/></g><g><path fill="#4e96d1" d="M11.8.808h102.226v24.064h-.292l.107 25.545-5.183.185s-95.515-.555-101.254.74c-5.738 1.296-7.034 8.7-7.034 8.7L.19 14.748a12.134 12.134 0 0 1-.19-2.14C0 6.092 5.283.809 11.8.809z"/><path fill="url(#p6r8a)" d="M11.8.808h102.226v24.064h-.292l.107 25.545-5.183.185s-95.515-.555-101.254.74c-5.738 1.296-7.034 8.7-7.034 8.7L.19 14.748a12.134 12.134 0 0 1-.19-2.14C0 6.092 5.283.809 11.8.809z"/></g><g><path fill="#79b260" d="M11.762 57.476h12.524L24 67.333l-6.143-3.762L12 67.333"/></g></g></svg>